<?xml version="1.0" standalone="no"?><!DOCTYPE svg PUBLIC "-//W3C//DTD SVG 1.1//EN" "http://www.w3.org/Graphics/SVG/1.1/DTD/svg11.dtd"><svg width="1024" height="1024" viewBox="0 0 1024 1024" version="1.1" xmlns="http://www.w3.org/2000/svg" xmlns:xlink="http://www.w3.org/1999/xlink"><path d="M900.042105 156.294737l-113.178947 0c-10.778947 0-21.557895 10.778947-21.557895 21.557895s10.778947 21.557895 21.557895 21.557895l113.178947 0 0 738.357895L123.957895 937.768421 123.957895 199.410526l113.178947 0c10.778947 0 21.557895-10.778947 21.557895-21.557895S253.305263 156.294737 237.136842 156.294737L123.957895 156.294737C102.4 156.294737 80.842105 177.852632 80.842105 199.410526l0 738.357895c0 21.557895 21.557895 43.115789 43.115789 43.115789l776.084211 0c21.557895 0 43.115789-21.557895 43.115789-43.115789L943.157895 199.410526C943.157895 177.852632 921.6 156.294737 900.042105 156.294737L900.042105 156.294737 900.042105 156.294737zM339.536842 204.8l350.315789 0c10.778947 0 21.557895-10.778947 21.557895-21.557895s-10.778947-21.557895-21.557895-21.557895L619.789474 161.684211c0-5.389474 0-5.389474 0-10.778947 0-59.284211-48.505263-107.789474-107.789474-107.789474-59.284211 0-107.789474 48.505263-107.789474 107.789474 0 5.389474 0 5.389474 0 10.778947L339.536842 161.684211c-10.778947 0-21.557895 10.778947-21.557895 21.557895S323.368421 204.8 339.536842 204.8L339.536842 204.8 339.536842 204.8zM447.326316 150.905263c0-37.726316 26.947368-64.673684 64.673684-64.673684 37.726316 0 64.673684 26.947368 64.673684 64.673684 0 5.389474 0 5.389474 0 10.778947L447.326316 161.684211C447.326316 156.294737 447.326316 150.905263 447.326316 150.905263L447.326316 150.905263 447.326316 150.905263zM291.031579 414.989474l441.936842 0c10.778947 0 21.557895-10.778947 21.557895-21.557895 0-10.778947-10.778947-21.557895-21.557895-21.557895L291.031579 371.873684c-10.778947 0-21.557895 10.778947-21.557895 21.557895C269.473684 404.210526 280.252632 414.989474 291.031579 414.989474L291.031579 414.989474 291.031579 414.989474zM291.031579 603.621053l441.936842 0c10.778947 0 21.557895-10.778947 21.557895-21.557895 0-10.778947-10.778947-21.557895-21.557895-21.557895L291.031579 560.505263c-10.778947 0-21.557895 10.778947-21.557895 21.557895C269.473684 592.842105 280.252632 603.621053 291.031579 603.621053L291.031579 603.621053 291.031579 603.621053zM291.031579 792.252632l441.936842 0c10.778947 0 21.557895-10.778947 21.557895-21.557895 0-10.778947-10.778947-21.557895-21.557895-21.557895L291.031579 749.136842c-10.778947 0-21.557895 10.778947-21.557895 21.557895C269.473684 781.473684 280.252632 792.252632 291.031579 792.252632L291.031579 792.252632 291.031579 792.252632z" fill="#ffffff"></path></svg>