<?xml version="1.0" standalone="no"?><!DOCTYPE svg PUBLIC "-//W3C//DTD SVG 1.1//EN" "http://www.w3.org/Graphics/SVG/1.1/DTD/svg11.dtd"><svg width="1024" height="1024" viewBox="0 0 1024 1024" version="1.1" xmlns="http://www.w3.org/2000/svg" xmlns:xlink="http://www.w3.org/1999/xlink"><path d="M494.279111 78.222222C463.445333 78.222222 438.414222 103.253333 438.414222 134.087111L549.688889 132.266667C547.697778 100.920889 523.576889 78.222222 494.279111 78.222222L494.279111 78.222222ZM310.584889 201.159111C291.584 201.159111 276.053333 185.685333 276.053333 166.627556 276.053333 147.569778 291.584 132.096 310.584889 132.096L369.635556 132.096C372.536889 62.065778 427.320889 9.159111 494.279111 9.159111 562.488889 9.159111 618.069333 64.113778 619.150222 132.096L677.973333 132.096C697.031111 132.096 712.448 147.569778 712.448 166.627556 712.448 185.685333 697.031111 201.159111 677.973333 201.159111L310.584889 201.159111ZM261.717333 427.52C242.659556 427.52 227.185778 411.989333 227.185778 392.931556 227.185778 373.930667 242.659556 358.456889 261.717333 358.456889L726.954667 358.456889C745.955556 358.456889 761.429333 373.930667 761.429333 392.931556 761.429333 411.989333 745.955556 427.52 726.954667 427.52L261.717333 427.52ZM261.717333 626.346667C242.659556 626.346667 227.185778 610.872889 227.185778 591.815111 227.185778 572.757333 242.659556 557.340444 261.717333 557.340444L726.954667 557.340444C745.955556 557.340444 761.429333 572.757333 761.429333 591.815111 761.429333 610.872889 745.955556 626.346667 726.954667 626.346667L261.717333 626.346667ZM261.717333 825.173333C242.659556 825.173333 227.185778 809.699556 227.185778 790.641778 227.185778 771.584 242.659556 756.167111 261.717333 756.167111L726.954667 756.167111C745.955556 756.167111 761.429333 771.584 761.429333 790.641778 761.429333 809.699556 745.955556 825.173333 726.954667 825.173333L261.717333 825.173333ZM86.101333 1024C54.300444 1024 28.472889 998.172444 28.472889 966.428444L28.472889 188.359111C28.472889 156.501333 54.300444 130.673778 86.101333 130.673778L205.624889 130.673778C224.682667 130.673778 240.213333 146.147556 240.213333 165.148444 240.213333 184.206222 224.682667 199.736889 205.624889 199.736889L97.479111 199.736889 97.479111 955.164444 891.136 955.164444 891.136 199.793778 784.810667 199.793778C765.809778 199.793778 750.392889 184.263111 750.392889 165.205333 750.392889 146.147556 765.809778 130.673778 784.810667 130.673778L902.456889 130.673778C934.200889 130.673778 960.028444 156.501333 960.085333 188.359111L960.085333 966.428444C960.085333 998.172444 934.314667 1024 902.570667 1024L86.101333 1024Z" fill="#272636"></path></svg>